<?xml version="1.0" encoding="utf-8"?>
<svg viewBox="24.581 75.977 325.699 332.403" xmlns="http://www.w3.org/2000/svg">
  <path stroke-width="10" d="M 122.235 164.973 C 125.091 164.353 128.969 164.436 131.732 165.531 C 134.449 166.608 137.171 168.665 138.716 171.397 C 140.467 174.495 140.439 176.05 140.95 183.688 C 142.23 202.817 144.49 290.461 140.391 307.71 C 138.823 314.311 136.982 315.01 133.967 316.928 C 130.821 318.929 125.318 319.939 121.676 319.162 C 118.186 318.418 114.343 314.93 112.459 312.738 C 111.042 311.09 110.805 311.714 110.224 307.71 C 108.16 293.491 106.859 193.992 110.224 176.984 C 111.397 171.052 112.894 170.902 114.973 168.883 C 116.946 166.966 119.538 165.557 122.235 164.973 Z" style="stroke-width: 2px; fill: rgb(255, 60, 95); stroke: rgb(255, 255, 255);"/>
  <path stroke-width="10" d="M 183.069 163.763 C 186.201 163.122 190.455 163.208 193.486 164.339 C 196.467 165.451 199.453 167.574 201.147 170.395 C 203.068 173.594 203.037 175.199 203.598 183.085 C 205.002 202.835 207.481 293.325 202.985 311.135 C 201.265 317.95 199.245 318.672 195.938 320.652 C 192.487 322.718 186.45 323.761 182.455 322.958 C 178.627 322.19 174.411 318.589 172.345 316.326 C 170.79 314.624 170.53 315.269 169.893 311.135 C 167.629 296.454 166.202 193.724 169.893 176.164 C 171.18 170.039 172.822 169.884 175.103 167.8 C 177.267 165.82 180.11 164.366 183.069 163.763 Z" style="stroke-width: 2px; fill: rgb(16, 23, 40); stroke: rgb(255, 255, 255);"/>
  <path stroke-width="10" d="M 245.743 164.873 C 248.783 164.244 252.912 164.328 255.854 165.439 C 258.746 166.531 261.644 168.618 263.289 171.389 C 265.153 174.532 265.123 176.109 265.667 183.858 C 267.03 203.263 269.436 292.172 265.072 309.67 C 263.403 316.366 261.443 317.075 258.233 319.021 C 254.884 321.05 249.025 322.075 245.148 321.287 C 241.432 320.532 237.341 316.994 235.335 314.77 C 233.826 313.098 233.574 313.731 232.955 309.67 C 230.758 295.245 229.373 194.31 232.955 177.057 C 234.204 171.039 235.798 170.887 238.011 168.839 C 240.112 166.894 242.871 165.465 245.743 164.873 Z" style="stroke-width: 2px; fill: rgb(147, 64, 255); stroke: rgb(255, 255, 255);"/>
</svg>
